<svg width="18" height="18" fill="none" xmlns="http://www.w3.org/2000/svg"><g clip-path="url(#clip0_1_960)"><mask id="a" style="mask-type:luminance" maskUnits="userSpaceOnUse" x="0" y="0" width="18" height="18"><path d="M8.999.485c2.115 0 3.907.706 5.33 1.889L12.44 4.26a5.323 5.323 0 00-1.957-.988 5.766 5.766 0 00-1.48-.188c-2.57 0-4.742 1.742-5.514 4.054a5.865 5.865 0 00-.022 3.659v.002c.013.039.046.15.083.244h0c.82 2.225 2.946 3.875 5.452 3.875.96 0 2.387-.188 3.625-1.156a4.632 4.632 0 001.724-2.895l.09-.562H9.492V7.816h7.563c.062.45.098.923.098 1.39 0 1.313-.233 2.514-.663 3.57a7.485 7.485 0 01-1.855 2.7 7.29 7.29 0 01-2.029 1.326c-1.046.462-2.243.713-3.608.713a8.457 8.457 0 01-5.008-1.626 8.618 8.618 0 01-2.554-2.965v-.004l-.052-.105A8.393 8.393 0 01.485 9c0-1.38.319-2.66.9-3.815h0A8.523 8.523 0 019 .485z" fill="#fff" stroke="#fff" stroke-width=".971"/></mask><g mask="url(#a)"><g filter="url(#filter0_f_1_960)"><path d="M-.13 9.06c.01 1.434.41 2.913 1.016 4.107v.008c.438.868 1.036 1.552 1.718 2.231l4.116-1.532c-.779-.404-.898-.652-1.456-1.103a5.335 5.335 0 01-1.26-2.051h-.011l.01-.008c-.174-.522-.19-1.076-.197-1.652H-.13z" fill="url(#paint0_radial_1_960)"/></g><g filter="url(#filter1_f_1_960)"><path d="M9.008-.065c-.407 1.458-.251 2.876 0 3.7.47.001.922.058 1.352.172a4.86 4.86 0 012.106 1.182l2.639-2.637C13.54.889 11.66-.063 9.008-.065z" fill="url(#paint1_radial_1_960)"/></g><g filter="url(#filter2_f_1_960)"><path d="M9-.077a9.249 9.249 0 00-6.881 3.076c-.121 1.15.897 2.561 2.914 2.55.978-1.162 2.426-1.913 4.036-1.913h.005L9.008-.077h-.009z" fill="url(#paint2_radial_1_960)"/></g><g filter="url(#filter3_f_1_960)"><path d="M15.586 9.476l-1.781 1.249a4.145 4.145 0 01-1.543 2.589c-1.115.872-2.415 1.052-3.32 1.052-.935 1.626-1.1 2.44.066 3.752 1.442-.001 2.72-.267 3.847-.764a7.88 7.88 0 002.19-1.43 8.077 8.077 0 002.002-2.915c.462-1.133.709-2.414.709-3.803l-2.17.27z" fill="url(#paint3_radial_1_960)"/></g><g filter="url(#filter4_f_1_960)"><path d="M8.876 7.199v3.723h8.57c.076-.51.325-1.17.325-1.716 0-.638-.062-1.418-.169-2.007H8.876z" fill="#3086FF"/></g><g filter="url(#filter5_f_1_960)"><path d="M2.159 2.868a8.979 8.979 0 00-1.34 1.966C.206 6.057-.13 7.543-.13 9l.001.061c.272.533 3.76.43 3.936 0L3.803 9c0-.597.1-1.037.28-1.577.222-.666.57-1.28 1.016-1.809.1-.131.37-.414.448-.583.03-.065-.054-.101-.059-.124-.005-.025-.118-.005-.143-.024-.08-.06-.24-.091-.336-.12-.207-.059-.55-.19-.74-.327-.6-.431-1.538-.946-2.11-1.568z" fill="url(#paint4_radial_1_960)"/></g><g filter="url(#filter6_f_1_960)"><path d="M4.283 4.91c1.393.861 1.794-.435 2.72-.84L5.392.66a9.049 9.049 0 00-3.7 2.928l2.59 1.322z" fill="url(#paint5_radial_1_960)"/></g><g filter="url(#filter7_f_1_960)"><path d="M4.85 13.61c-1.87.69-2.163.714-2.336 1.897.33.327.683.63 1.059.905 1.008.738 2.947 1.72 5.426 1.72h.009V14.3h-.006c-.929 0-1.67-.25-2.431-.682-.188-.107-.528.18-.701.052-.239-.177-.813.152-1.02-.06z" fill="url(#paint6_radial_1_960)"/></g><g opacity=".5" filter="url(#filter8_f_1_960)"><path d="M7.912 14.18v3.885a9.24 9.24 0 001.087.066c.38 0 .747-.02 1.104-.056v-3.869c-.4.07-.776.095-1.101.095a5.13 5.13 0 01-1.09-.121z" fill="url(#paint7_linear_1_960)"/></g></g></g><defs><filter id="filter0_f_1_960" x="-.6" y="8.59" width="7.79" height="7.286" filterUnits="userSpaceOnUse" color-interpolation-filters="sRGB"><feFlood flood-opacity="0" result="BackgroundImageFix"/><feBlend in="SourceGraphic" in2="BackgroundImageFix" result="shape"/><feGaussianBlur stdDeviation=".235" result="effect1_foregroundBlur_1_960"/></filter><filter id="filter1_f_1_960" x="8.288" y="-.536" width="7.287" height="5.995" filterUnits="userSpaceOnUse" color-interpolation-filters="sRGB"><feFlood flood-opacity="0" result="BackgroundImageFix"/><feBlend in="SourceGraphic" in2="BackgroundImageFix" result="shape"/><feGaussianBlur stdDeviation=".235" result="effect1_foregroundBlur_1_960"/></filter><filter id="filter2_f_1_960" x="1.638" y="-.547" width="7.906" height="6.566" filterUnits="userSpaceOnUse" color-interpolation-filters="sRGB"><feFlood flood-opacity="0" result="BackgroundImageFix"/><feBlend in="SourceGraphic" in2="BackgroundImageFix" result="shape"/><feGaussianBlur stdDeviation=".235" result="effect1_foregroundBlur_1_960"/></filter><filter id="filter3_f_1_960" x="7.717" y="8.736" width="10.509" height="9.852" filterUnits="userSpaceOnUse" color-interpolation-filters="sRGB"><feFlood flood-opacity="0" result="BackgroundImageFix"/><feBlend in="SourceGraphic" in2="BackgroundImageFix" result="shape"/><feGaussianBlur stdDeviation=".235" result="effect1_foregroundBlur_1_960"/></filter><filter id="filter4_f_1_960" x="8.406" y="6.729" width="9.835" height="4.663" filterUnits="userSpaceOnUse" color-interpolation-filters="sRGB"><feFlood flood-opacity="0" result="BackgroundImageFix"/><feBlend in="SourceGraphic" in2="BackgroundImageFix" result="shape"/><feGaussianBlur stdDeviation=".235" result="effect1_foregroundBlur_1_960"/></filter><filter id="filter5_f_1_960" x="-.602" y="2.398" width="6.626" height="7.495" filterUnits="userSpaceOnUse" color-interpolation-filters="sRGB"><feFlood flood-opacity="0" result="BackgroundImageFix"/><feBlend in="SourceGraphic" in2="BackgroundImageFix" result="shape"/><feGaussianBlur stdDeviation=".235" result="effect1_foregroundBlur_1_960"/></filter><filter id="filter6_f_1_960" x="-1.613" y="-2.646" width="11.921" height="11.15" filterUnits="userSpaceOnUse" color-interpolation-filters="sRGB"><feFlood flood-opacity="0" result="BackgroundImageFix"/><feBlend in="SourceGraphic" in2="BackgroundImageFix" result="shape"/><feGaussianBlur stdDeviation="1.652" result="effect1_foregroundBlur_1_960"/></filter><filter id="filter7_f_1_960" x="2.044" y="13.125" width="7.434" height="5.477" filterUnits="userSpaceOnUse" color-interpolation-filters="sRGB"><feFlood flood-opacity="0" result="BackgroundImageFix"/><feBlend in="SourceGraphic" in2="BackgroundImageFix" result="shape"/><feGaussianBlur stdDeviation=".235" result="effect1_foregroundBlur_1_960"/></filter><filter id="filter8_f_1_960" x="7.442" y="13.71" width="3.131" height="4.892" filterUnits="userSpaceOnUse" color-interpolation-filters="sRGB"><feFlood flood-opacity="0" result="BackgroundImageFix"/><feBlend in="SourceGraphic" in2="BackgroundImageFix" result="shape"/><feGaussianBlur stdDeviation=".235" result="effect1_foregroundBlur_1_960"/></filter><radialGradient id="paint0_radial_1_960" cx="0" cy="0" r="1" gradientTransform="matrix(-.36656 -8.96393 13.1794 -.53792 6.638 15.271)" gradientUnits="userSpaceOnUse"><stop offset=".142" stop-color="#1ABD4D"/><stop offset=".248" stop-color="#6EC30D"/><stop offset=".312" stop-color="#8AC502"/><stop offset=".366" stop-color="#A2C600"/><stop offset=".446" stop-color="#C8C903"/><stop offset=".54" stop-color="#EBCB03"/><stop offset=".616" stop-color="#F7CD07"/><stop offset=".699" stop-color="#FDCD04"/><stop offset=".771" stop-color="#FDCE05"/><stop offset=".861" stop-color="#FFCE0A"/></radialGradient><radialGradient id="paint1_radial_1_960" cx="0" cy="0" r="1" gradientTransform="matrix(6.22521 -.00002 0 8.03195 14.858 4.798)" gradientUnits="userSpaceOnUse"><stop offset=".408" stop-color="#FB4E5A"/><stop offset="1" stop-color="#FF4540"/></radialGradient><radialGradient id="paint2_radial_1_960" cx="0" cy="0" r="1" gradientTransform="matrix(-8.72197 4.82619 6.55529 11.8245 11.458 -1.24)" gradientUnits="userSpaceOnUse"><stop offset=".231" stop-color="#FF4541"/><stop offset=".312" stop-color="#FF4540"/><stop offset=".458" stop-color="#FF4640"/><stop offset=".54" stop-color="#FF473F"/><stop offset=".699" stop-color="#FF5138"/><stop offset=".771" stop-color="#FF5B33"/><stop offset=".861" stop-color="#FF6C29"/><stop offset="1" stop-color="#FF8C18"/></radialGradient><radialGradient id="paint3_radial_1_960" cx="0" cy="0" r="1" gradientTransform="matrix(-15.8175 -20.6285 -7.62169 5.83314 9.138 16.953)" gradientUnits="userSpaceOnUse"><stop offset=".132" stop-color="#0CBA65"/><stop offset=".21" stop-color="#0BB86D"/><stop offset=".297" stop-color="#09B479"/><stop offset=".396" stop-color="#08AD93"/><stop offset=".477" stop-color="#0AA6A9"/><stop offset=".568" stop-color="#0D9CC6"/><stop offset=".667" stop-color="#1893DD"/><stop offset=".769" stop-color="#258BF1"/><stop offset=".859" stop-color="#3086FF"/></radialGradient><radialGradient id="paint4_radial_1_960" cx="0" cy="0" r="1" gradientTransform="matrix(-1.11937 9.63913 13.3403 1.54626 8.235 1.623)" gradientUnits="userSpaceOnUse"><stop offset=".366" stop-color="#FF4E3A"/><stop offset=".458" stop-color="#FF8A1B"/><stop offset=".54" stop-color="#FFA312"/><stop offset=".616" stop-color="#FFB60C"/><stop offset=".771" stop-color="#FFCD0A"/><stop offset=".861" stop-color="#FECF0A"/><stop offset=".915" stop-color="#FECF08"/><stop offset="1" stop-color="#FDCD01"/></radialGradient><radialGradient id="paint5_radial_1_960" cx="0" cy="0" r="1" gradientTransform="matrix(-3.23556 3.57508 -10.0932 -9.11745 6.66 1.523)" gradientUnits="userSpaceOnUse"><stop offset=".316" stop-color="#FF4C3C"/><stop offset=".604" stop-color="#FF692C"/><stop offset=".727" stop-color="#FF7825"/><stop offset=".885" stop-color="#FF8D1B"/><stop offset="1" stop-color="#FF9F13"/></radialGradient><radialGradient id="paint6_radial_1_960" cx="0" cy="0" r="1" gradientTransform="matrix(-8.72197 -4.82619 6.55529 -11.8245 11.458 19.24)" gradientUnits="userSpaceOnUse"><stop offset=".231" stop-color="#0FBC5F"/><stop offset=".312" stop-color="#0FBC5F"/><stop offset=".366" stop-color="#0FBC5E"/><stop offset=".458" stop-color="#0FBC5D"/><stop offset=".54" stop-color="#12BC58"/><stop offset=".699" stop-color="#28BF3C"/><stop offset=".771" stop-color="#38C02B"/><stop offset=".861" stop-color="#52C218"/><stop offset=".915" stop-color="#67C30F"/><stop offset="1" stop-color="#86C504"/></radialGradient><linearGradient id="paint7_linear_1_960" x1="7.912" y1="16.156" x2="10.103" y2="16.156" gradientUnits="userSpaceOnUse"><stop stop-color="#0FBC5C"/><stop offset="1" stop-color="#0CBA65"/></linearGradient><clipPath id="clip0_1_960"><path fill="#fff" d="M0 0h18v18H0z"/></clipPath></defs></svg>